HIERARCHY
ROOT hip
{
	OFFSET 0.000000 0.000000 0.000000
	CHANNELS 6 Xposition Yposition Zposition Xrotation Zrotation Yrotation 
	JOINT abdomen
	{
		OFFSET 0.000000 3.422050 0.000000
		CHANNELS 3 Xrotation Zrotation Yrotation 
		JOINT chest
		{
			OFFSET 0.000000 8.486693 -0.684411
			CHANNELS 3 Xrotation Zrotation Yrotation 
			JOINT neck
			{
				OFFSET 0.000000 10.266162 -0.273764
				CHANNELS 3 Xrotation Zrotation Yrotation 
				JOINT head
				{
					OFFSET 0.000000 3.148285 0.000000
					CHANNELS 3 Xrotation Zrotation Yrotation 
					End Site
					{
						OFFSET 0.000000 3.148289 0.000000
					}
				}
			}
			JOINT lCollar
			{
				OFFSET 3.422053 6.707223 -0.821293
				CHANNELS 3 Yrotation Zrotation Xrotation 
				JOINT lShldr
				{
					OFFSET 3.285171 0.000000 0.000000
					CHANNELS 3 Zrotation Yrotation Xrotation 
					JOINT lForeArm
					{
						OFFSET 10.129278 0.000000 0.000000
						CHANNELS 3 Yrotation Zrotation Xrotation 
						JOINT lHand
						{
							OFFSET 8.486692 0.000000 0.000000
							CHANNELS 3 Zrotation Yrotation Xrotation 
							End Site
							{
								OFFSET 4.106464 0.000000 0.000000
							}
						}
					}
				}
			}
			JOINT rCollar
			{
				OFFSET -3.558935 6.707223 -0.821293
				CHANNELS 3 Yrotation Zrotation Xrotation 
				JOINT rShldr
				{
					OFFSET -3.148289 0.000000 0.000000
					CHANNELS 3 Zrotation Yrotation Xrotation 
					JOINT rForeArm
					{
						OFFSET -10.266159 0.000000 0.000000
						CHANNELS 3 Yrotation Zrotation Xrotation 
						JOINT rHand
						{
							OFFSET -8.349810 0.000000 0.000000
							CHANNELS 3 Zrotation Yrotation Xrotation 
							End Site
							{
								OFFSET -4.106464 0.000000 0.000000
							}
						}
					}
				}
			}
		}
	}
	JOINT lThigh
	{
		OFFSET 5.338403 -1.642589 1.368821
		CHANNELS 3 Xrotation Zrotation Yrotation 
		JOINT lShin
		{
			OFFSET -2.053232 -20.121670 0.000000
			CHANNELS 3 Xrotation Zrotation Yrotation 
			JOINT lFoot
			{
				OFFSET 0.000000 -19.300380 -1.231939
				CHANNELS 3 Xrotation Yrotation Zrotation 
				End Site
				{
					OFFSET 0.000000 -2.463878 4.653993
				}
			}
		}
	}
	JOINT rThigh
	{
		OFFSET -5.338403 -1.642589 1.368821
		CHANNELS 3 Xrotation Zrotation Yrotation 
		JOINT rShin
		{
			OFFSET 2.053232 -20.121670 0.000000
			CHANNELS 3 Xrotation Zrotation Yrotation 
			JOINT rFoot
			{
				OFFSET 0.000000 -19.300380 -1.231939
				CHANNELS 3 Xrotation Yrotation Zrotation 
				End Site
				{
					OFFSET 0.000000 -2.463878 4.653993
				}
			}
		}
	}
}
MOTION
Frames: 13
Frame Time: 0.049989
0.000000 3.996296 3.997990 -90.001862 -0.269606 179.747711 -4.919366 0.790970 -0.195355 -8.428976 0.982977 -0.569843 17.588026 0.000000 0.000000 -92.134148 0.000000 0.000000 13.925873 20.568064 -46.003899 -40.683777 -43.463722 -11.912985 -85.524757 23.895153 -8.209212 -14.273961 22.370386 -11.985037 -13.531596 -21.034437 -46.002716 40.796398 43.366264 -11.761042 86.073334 -23.971939 -8.022035 13.738324 -23.052332 -11.900239 -2.003041 7.933865 0.006580 92.044151 4.991624 -0.911034 60.196358 7.462363 2.626873 -0.021044 -6.124616 -0.032144 93.024757 -5.088673 0.041361 60.845081 -7.349058 -1.772849 
0.000000 3.996296 3.997990 -90.001862 -0.269606 179.747711 -4.619471 0.790916 -0.195371 -9.078269 0.982913 -0.569824 17.188234 0.000000 0.000000 -90.254608 0.000000 0.000000 13.718413 20.577114 -45.735683 -40.683777 -43.463722 -11.912985 -85.524757 23.895153 -8.209212 -14.273961 22.370386 -11.985037 -13.323247 -21.042324 -45.732246 40.796398 43.366264 -11.761042 86.073334 -23.971939 -8.022035 13.738324 -23.052332 -11.900239 -2.003041 7.933865 0.006580 92.044151 4.991624 -0.911034 60.196358 7.462363 2.626873 -0.021044 -6.124616 -0.032144 93.024757 -5.088673 0.041361 60.845081 -7.349058 -1.772849 
0.000000 3.996296 3.997990 -90.001862 -0.269606 179.747711 -4.319542 0.790861 -0.195388 -9.727896 0.982849 -0.569805 16.788372 0.000000 0.000000 -88.366760 0.000000 0.000000 13.510880 20.585257 -45.467403 -40.683777 -43.463722 -11.912985 -85.524757 23.895153 -8.209212 -14.273961 22.370386 -11.985037 -13.114835 -21.049299 -45.461731 40.796398 43.366264 -11.761042 86.073334 -23.971939 -8.022035 13.738324 -23.052332 -11.900239 -2.003041 7.933865 0.006580 92.044151 4.991624 -0.911034 60.196358 7.462363 2.626873 -0.021044 -6.124616 -0.032144 93.024757 -5.088673 0.041361 60.845081 -7.349058 -1.772849 
0.000000 3.996296 3.997990 -90.001862 -0.269606 179.747711 -4.019586 0.790808 -0.195404 -10.377816 0.982785 -0.569785 16.388437 0.000000 0.000000 -86.471611 0.000000 0.000000 13.303281 20.592491 -45.199055 -40.683777 -43.463722 -11.912985 -85.524757 23.895153 -8.209212 -14.273961 22.370386 -11.985037 -12.906363 -21.055357 -45.191151 40.796398 43.366264 -11.761042 86.073334 -23.971939 -8.022035 13.738324 -23.052332 -11.900239 -2.003041 7.933865 0.006580 92.044151 4.991624 -0.911034 60.196358 7.462363 2.626873 -0.021044 -6.124616 -0.032144 93.024757 -5.088673 0.041361 60.845081 -7.349058 -1.772849 
0.000000 3.996296 3.997990 -90.001862 -0.269606 179.747711 -3.719605 0.790754 -0.195421 -11.027986 0.982722 -0.569765 15.988440 0.000000 0.000000 -84.570168 0.000000 0.000000 13.095620 20.598808 -44.930637 -40.683777 -43.463722 -11.912985 -85.524757 23.895153 -8.209212 -14.273961 22.370386 -11.985037 -12.697837 -21.060488 -44.920509 40.796398 43.366264 -11.761042 86.073334 -23.971939 -8.022035 13.738324 -23.052332 -11.900239 -2.003041 7.933865 0.006580 92.044151 4.991624 -0.911034 60.196358 7.462363 2.626873 -0.021044 -6.124616 -0.032144 93.024757 -5.088673 0.041361 60.845081 -7.349058 -1.772849 
0.000000 3.996296 3.997990 -90.001862 -0.269606 179.747711 -3.419602 0.790700 -0.195439 -11.678365 0.982658 -0.569744 15.588397 0.000000 0.000000 -82.663399 0.000000 0.000000 12.887916 20.604225 -44.662193 -40.683777 -43.463722 -11.912985 -85.524757 23.895153 -8.209212 -14.273961 22.370384 -11.985036 -12.489270 -21.064709 -44.649826 40.796398 43.366264 -11.761042 86.073334 -23.971939 -8.022035 13.738324 -23.052332 -11.900239 -2.003041 7.933865 0.006580 92.044151 4.991624 -0.911034 60.196358 7.462363 2.626873 -0.021044 -6.124616 -0.032144 93.024757 -5.088673 0.041361 60.845081 -7.349058 -1.772849 
0.000000 3.996296 3.997990 -90.001862 -0.269606 179.747711 -3.119583 0.790646 -0.195456 -12.328915 0.982596 -0.569722 15.188319 0.000000 0.000000 -80.752380 0.000000 0.000000 12.680168 20.608727 -44.393700 -40.683777 -43.463722 -11.912985 -85.524757 23.895153 -8.209212 -14.273961 22.370386 -11.985037 -12.280672 -21.068007 -44.379120 40.796398 43.366264 -11.761042 86.073334 -23.971939 -8.022035 13.738324 -23.052332 -11.900239 -2.003041 7.933865 0.006580 92.044151 4.991624 -0.911034 60.196358 7.462363 2.626873 -0.021044 -6.124616 -0.032144 93.024757 -5.088673 0.041361 60.845081 -7.349058 -1.772849 
0.000000 3.996296 3.997990 -90.001862 -0.269606 179.747711 -2.819553 0.790593 -0.195474 -12.979589 0.982533 -0.569699 14.788207 0.000000 0.000000 -78.838165 0.000000 0.000000 12.472392 20.612322 -44.125183 -40.683777 -43.463722 -11.912985 -85.524757 23.895153 -8.209212 -14.273961 22.370384 -11.985036 -12.072049 -21.070391 -44.108387 40.796398 43.366264 -11.761042 86.073334 -23.971939 -8.022035 13.738324 -23.052332 -11.900239 -2.003041 7.933865 0.006580 92.044151 4.991624 -0.911034 60.196358 7.462363 2.626873 -0.021044 -6.124616 -0.032144 93.024757 -5.088673 0.041361 60.845081 -7.349058 -1.772849 
0.000000 3.996296 3.997990 -90.001862 -0.269606 179.747711 -2.519514 0.790539 -0.195493 -13.630342 0.982470 -0.569675 14.388079 0.000000 0.000000 -76.921806 0.000000 0.000000 12.264582 20.614996 -43.856617 -40.683777 -43.463722 -11.912985 -85.524757 23.895153 -8.209212 -14.273961 22.370386 -11.985037 -11.863405 -21.071850 -43.837635 40.796398 43.366264 -11.761042 86.073334 -23.971939 -8.022035 13.738324 -23.052332 -11.900239 -2.003041 7.933865 0.006580 92.044151 4.991624 -0.911034 60.196358 7.462363 2.626873 -0.021044 -6.124616 -0.032144 93.024757 -5.088673 0.041361 60.845081 -7.349058 -1.772849 
0.000000 3.996296 3.997990 -90.001862 -0.269606 179.747711 -2.219471 0.790486 -0.195511 -14.281144 0.982408 -0.569651 13.987938 0.000000 0.000000 -75.004372 0.000000 0.000000 12.056764 20.616770 -43.588066 -40.683777 -43.463722 -11.912985 -85.524757 23.895153 -8.209212 -14.273961 22.370388 -11.985037 -11.654753 -21.072384 -43.566872 40.796398 43.366264 -11.761042 86.073334 -23.971939 -8.022035 13.738324 -23.052332 -11.900239 -2.003041 7.933865 0.006580 92.044151 4.991624 -0.911034 60.196358 7.462363 2.626873 -0.021044 -6.124616 -0.032144 93.024757 -5.088673 0.041361 60.845081 -7.349058 -1.772849 
0.000000 3.996296 3.997990 -90.001862 -0.269606 179.747711 -1.919427 0.790433 -0.195530 -14.931943 0.982346 -0.569626 13.587798 0.000000 0.000000 -73.086945 0.000000 0.000000 11.848931 20.617624 -43.319481 -40.683777 -43.463722 -11.912985 -85.524757 23.895153 -8.209212 -14.273961 22.370386 -11.985037 -11.446104 -21.072008 -43.296116 40.796398 43.366264 -11.761042 86.073334 -23.971939 -8.022035 13.738324 -23.052332 -11.900239 -2.003041 7.933865 0.006580 92.044151 4.991624 -0.911034 60.196358 7.462363 2.626873 -0.021044 -6.124616 -0.032144 93.024757 -5.088673 0.041361 60.845081 -7.349058 -1.772849 
0.000000 3.996296 3.997990 -90.001862 -0.269606 179.747711 -1.619388 0.790380 -0.195549 -15.582703 0.982284 -0.569601 13.187668 0.000000 0.000000 -71.170586 0.000000 0.000000 11.641100 20.617565 -43.050907 -40.683777 -43.463722 -11.912985 -85.524757 23.895153 -8.209212 -14.273961 22.370384 -11.985036 -11.237458 -21.070707 -43.025360 40.796398 43.366264 -11.761042 86.073334 -23.971939 -8.022035 13.738324 -23.052332 -11.900239 -2.003041 7.933865 0.006580 92.044151 4.991624 -0.911034 60.196358 7.462363 2.626873 -0.021044 -6.124616 -0.032144 93.024757 -5.088673 0.041361 60.845081 -7.349058 -1.772849 
0.000000 3.996296 3.997990 -90.001862 -0.269606 179.747711 -1.319358 0.790327 -0.195568 -16.233374 0.982223 -0.569575 12.787558 0.000000 0.000000 -69.256363 0.000000 0.000000 11.433279 20.616604 -42.782349 -40.683777 -43.463722 -11.912985 -85.524757 23.895153 -8.209212 -14.273961 22.370386 -11.985037 -11.028831 -21.068483 -42.754620 40.796398 43.366264 -11.761042 86.073334 -23.971939 -8.022035 13.738324 -23.052332 -11.900239 -2.003041 7.933865 0.006580 92.044151 4.991624 -0.911034 60.196358 7.462363 2.626873 -0.021044 -6.124616 -0.032144 93.024757 -5.088673 0.041361 60.845081 -7.349058 -1.772849 
